# AST/ASF file generated using VICON BodyLanguage
# -----------------------------------------------
:version 1.10
:name VICON
:units
  mass 1.0
  length 0.45
  angle deg
:documentation
   .ast/.asf automatically generated from VICON data using
   VICON BodyBuilder and BodyLanguage model FoxedUp or BRILLIANT.MOD
:root
   order TX TY TZ RX RY RZ
   axis XYZ
   position 0 0 0  
   orientation 0 0 0 
:bonedata
  begin
     id 1 
     name lhipjoint
     direction 0.643824 -0.71708 0.266994 
     length 2.52133 
     axis 0 0 0  XYZ
  end
  begin
     id 2 
     name lfemur
     direction 0.34202 -0.939693 0  
     length 7.51824  
     axis 0 0 20  XYZ
    dof rx ry rz
    limits (-160.0 20.0)
           (-70.0 70.0)
           (-60.0 70.0)
  end
  begin
     id 3 
     name ltibia
     direction 0.34202 -0.939693 0   
     length 7.3685   
     axis 0 0 20   XYZ
    dof rx
    limits (-10.0 170.0)
  end
  begin
     id 4 
     name lfoot
     direction 0.105419 -0.289636 0.951314   
     length 2.20972   
     axis -90 7.62852e-016 20   XYZ
    dof rx rz
    limits (-45.0 90.0)
           (-70.0 20.0)
  end
  begin
     id 5 
     name ltoes
     direction 1.53549e-011 -4.21833e-011 1   
     length 1.10139   
     axis -90 7.62852e-016 20   XYZ
    dof rx
    limits (-90.0 20.0)
  end
  begin
     id 6 
     name rhipjoint
     direction -0.608823 -0.743445 0.276811   
     length 2.43192  
     axis 0 0 0  XYZ 
  end
  begin
     id 7 
     name rfemur
     direction -0.34202 -0.939693 0   
     length 7.69715   
     axis 0 0 -20   XYZ
    dof rx ry rz
    limits (-160.0 20.0)
           (-70.0 70.0)
           (-70.0 60.0)
  end
  begin
     id 8 
     name rtibia
     direction -0.34202 -0.939693 0   
     length 7.44924   
     axis 0 0 -20   XYZ
    dof rx
    limits (-10.0 170.0)
 end
 begin
     id 9 
     name rfoot
     direction -0.103614 -0.284677 0.953007   
     length 2.22623  
     axis -90 -7.62852e-016 -20   XYZ
    dof rx rz
    limits (-45.0 90.0)
           (-20.0 70.0)
  end
  begin
     id 10 
     name rtoes
     direction -1.53537e-011 -4.22026e-011 1   
     length 1.11   
     axis -90 -7.62852e-016 -20   XYZ
    dof rx
    limits (-90.0 20.0)
  end
  begin
     id 11 
     name lowerback
     direction -0.0101212 0.99662 -0.0815298   
     length 2.08277   
     axis 0 0 0   XYZ
    dof rx ry rz
    limits (-20.0 45.0)
           (-30.0 30.0)
           (-30.0 30.0)
  end
  begin
     id 12 
     name upperback
     direction 0.024314 0.999591 -0.0150645   
     length 2.08524   
     axis 0 0 0   XYZ
    dof rx ry rz
    limits (-20.0 45.0)
           (-30.0 30.0)
           (-30.0 30.0)
  end
  begin
     id 13 
     name thorax
     direction 0.0285959 0.999323 0.0231357   
     length 2.09645   
     axis 0 0 0   XYZ
    dof rx ry rz
    limits (-20.0 45.0)
           (-30.0 30.0)
           (-30.0 30.0)
  end
  begin
     id 14 
     name lowerneck
     direction -0.065512 0.979301 0.191515   
     length 1.63798   
     axis 0 0 0   XYZ
    dof rx ry rz
    limits (-20.0 45.0)
           (-30.0 30.0)
           (-30.0 30.0)
  end
  begin
     id 15 
     name upperneck
     direction 0.0498479 0.98191 -0.182667   
     length 1.68731   
     axis 0 0 0   XYZ
    dof rx ry rz
    limits (-20.0 45.0)
           (-30.0 30.0)
           (-30.0 30.0)
  end
  begin
     id 16
     name head
     direction 0.0230358 0.996257 -0.0833175  
     length 1.69785  
     axis 0 0 0   XYZ
    dof rx ry rz
    limits (-20.0 45.0)
           (-30.0 30.0)
           (-30.0 30.0)
  end
  begin
     id 17 
     name lclavicle
     direction 0.967963 0.201165 -0.150269  
     length 3.63976  
     axis 0 0 0   XYZ
    dof ry rz
    limits (-20.0 10.0)
           (0.0 20.0)
  end
  begin
     id 18 
     name lhumerus
     direction 1 -4.48954e-011 -2.92837e-028   
     length 5.32462   
     axis 180 -30 -90   XYZ
    dof rx ry rz
    limits (-60.0 90.0)
           (-90.0 90.0)
           (-90.0 90.0)
  end
  begin
     id 19
     name lradius
     direction 1 -4.48958e-011 -6.39511e-027   
     length 3.48402   
     axis 180 -30 -90   XYZ
    dof rx
    limits (-10.0 170.0)
  end
  begin
     id 20
     name lwrist
     direction 1 -4.48975e-011 -1.1413e-026   
     length 1.74201   
     axis 6.88575e-015 90 90   XYZ
    dof ry
    limits (-180.0 0.0)
 end
  begin
     id 21 
     name lhand
     direction 1 -4.48899e-011 -2.28192e-026   
     length 0.572476   
     axis 1.45643e-014 90 90   XYZ
    dof rx rz
    limits (-90.0 90.0)
           (-45.0 45.0)
  end
  begin
     id 22 
     name lfingers
     direction 1 -4.49155e-011 -4.5684e-026   
     length 0.461545   
     axis 2.91283e-014 90 90   XYZ
    dof rx
    limits (0.0 90.0)
  end
  begin
     id 23
     name lthumb
     direction 0.707107 -6.34943e-011 0.707107   
     length 0.662688   
     axis -90 45 -2.25915e-014   XYZ
    dof rx rz
    limits (-45.0 45.0)
           (-45.0 45.0)
  end
  begin
     id 24 
     name rclavicle
     direction -0.964103 0.264019 -0.0282629   
     length 3.54491  
     axis 0 0 0   XYZ 
    dof ry rz
    limits (-10.0 20.0)
           (-20.0 0.0)
  end
  begin
     id 25 
     name rhumerus
     direction -1 -4.48964e-011 -2.45032e-027  
     length 5.33589   
     axis 180 30 90   XYZ
    dof rx ry rz
    limits (-90.0 60.0)
           (-90.0 90.0)
           (-90.0 90.0)
  end
  begin
     id 26 
     name rradius
     direction -1 -4.48987e-011 -1.55093e-027   
     length 3.64134   
     axis 180 30 90   XYZ
    dof rx
    limits (-10.0 170.0)
  end
  begin
     id 27 
     name rwrist
     direction -1 -4.4897e-011 -1.14128e-026   
     length 1.82067   
     axis 6.88575e-015 -90 -90   XYZ
    dof ry
    limits (-180.0 0.0)
  end
  begin
     id 28
     name rhand
     direction -1 -4.49021e-011 -2.28301e-026   
     length 0.734811   
     axis 1.45643e-014 -90 -90   XYZ
    dof rx rz
    limits (-90.0 90.0)
           (-45.0 45.0)
  end
  begin
     id 29
     name rfingers
     direction -1 -4.48862e-011 -4.56319e-026   
     length 0.592424   
     axis 2.91283e-014 -90 -90   XYZ
    dof rx
    limits (0.0 90.0)
  end
  begin
     id 30
     name rthumb
     direction -0.707107 -6.34978e-011 0.707107   
     length 0.850605   
     axis -90 -45 2.25915e-014   XYZ
    dof rx rz
    limits (-45.0 45.0)
           (-45.0 45.0)
  end
:hierarchy
  begin
    root lhipjoint rhipjoint lowerback
    lhipjoint lfemur
    lfemur ltibia
    ltibia lfoot
    lfoot ltoes
    rhipjoint rfemur
    rfemur rtibia
    rtibia rfoot
    rfoot rtoes
    lowerback upperback
    upperback thorax
    thorax lowerneck lclavicle rclavicle
    lowerneck upperneck
    upperneck head
    lclavicle lhumerus
    lhumerus lradius
    lradius lwrist
    lwrist lhand lthumb
    lhand lfingers
    rclavicle rhumerus
    rhumerus rradius
    rradius rwrist
    rwrist rhand rthumb
    rhand rfingers
  end

#!OML:ASF F:\VICON\USERDATA\INSTALL\rory3\rory3.ASF
:FULLY-SPECIFIED
:DEGREES
77
root 0.330663 17.7792 12.0662 -170.584 -4.27391 177.65
lowerback -0.595935 -1.18891 -4.08761
upperback -1.14857 -1.59425 1.75555
thorax -0.685814 -0.768253 4.09978
lowerneck -14.0707 3.21727 -10.4611
upperneck 40.0973 2.09335 2.82688
head 16.6489 -2.009 2.99909
rclavicle -7.40473e-015 1.59028e-015
rhumerus -33.6229 -7.85289 -78.1148
rradius 33.4821
rwrist 19.0401
rhand -18.0646 4.13687
rfingers 7.12502
rthumb 8.20802 -25.6837
lclavicle -7.40473e-015 1.59028e-015
lhumerus -33.0827 9.94896 81.687
lradius 29.7507
lwrist -4.09297
lhand -17.7263 24.3235
lfingers 7.12502
lthumb 8.53443 54.1311
rfemur -17.7409 3.42285 22.3298
rtibia 31.3405
rfoot -20.7335 -2.01535
rtoes 16.7244
lfemur -13.997 -5.40587 -21.5763
ltibia 23.262
lfoot -14.9693 0.226958
ltoes -10.1032
78
root 0.340354 17.7925 12.0684 -170.597 -4.25209 177.577
lowerback -0.531048 -1.18512 -4.18156
upperback -1.0969 -1.58936 1.74616
thorax -0.667388 -0.765793 4.14393
lowerneck -14.1457 3.20585 -10.4611
upperneck 40.0789 2.12846 2.76622
head 16.6574 -1.99638 2.98006
rclavicle -3.42904e-015 -3.37934e-014
rhumerus -33.5912 -7.81828 -78.178
rradius 33.5454
rwrist 18.9879
rhand -18.2458 4.10531
rfingers 7.12502
rthumb 8.03309 -25.722
lclavicle -3.42904e-015 -3.37934e-014
lhumerus -32.979 9.97127 81.6838
lradius 29.7324
lwrist -4.03622
lhand -17.7461 24.2593
lfingers 7.12502
lthumb 8.51541 54.0676
rfemur -17.7361 3.33945 22.2853
rtibia 31.3612
rfoot -20.6398 -1.93865
rtoes 16.5123
lfemur -13.9898 -5.92738 -21.4935
ltibia 23.3188
lfoot -14.9921 0.235923
ltoes -6.88932
79
root 0.349669 17.7726 12.0728 -170.586 -4.20714 177.492
lowerback -0.470781 -1.16088 -4.31247
upperback -1.09668 -1.5587 1.73024
thorax -0.701326 -0.748311 4.203
lowerneck -14.1654 3.22732 -10.3571
upperneck 40.1178 2.16562 2.66135
head 16.6849 -1.98416 2.9212
rclavicle -1.93815e-015 -1.55052e-014
rhumerus -33.6247 -7.72455 -78.2487
rradius 33.6178
rwrist 18.7076
rhand -18.4989 3.78193
rfingers 7.12502
rthumb 7.78882 -26.0546
lclavicle -1.93815e-015 -1.55052e-014
lhumerus -32.9993 9.95044 81.6723
lradius 29.8348
lwrist -3.99616
lhand -17.6296 24.3888
lfingers 7.12502
lthumb 8.62776 54.1925
rfemur -17.8445 3.16552 22.2284
rtibia 31.4537
rfoot -20.5406 -1.79811
rtoes 16.0592
lfemur -14.0685 -5.5213 -21.6707
ltibia 23.3741
lfoot -15.0149 0.45472
ltoes -10.5221
80
root 0.358423 17.7804 12.0749 -170.596 -4.26307 177.486
lowerback -0.386566 -1.1718 -4.36198
upperback -1.12028 -1.57714 1.7513
thorax -0.769168 -0.754976 4.25513
lowerneck -14.0289 3.28706 -10.2564
upperneck 40.1149 2.21123 2.6032
head 16.6468 -1.96291 2.88138
rclavicle 1.67973e-014 -3.18055e-015
rhumerus -33.6433 -7.74936 -78.2659
rradius 33.6515
rwrist 18.6495
rhand -18.5492 3.43586
rfingers 7.12502
rthumb 7.7403 -26.4025
lclavicle 1.67973e-014 -3.18055e-015
lhumerus -33.0617 9.88543 81.6869
lradius 29.9392
lwrist -3.93255
lhand -17.4685 24.5978
lfingers 7.12502
lthumb 8.78327 54.395
rfemur -17.8246 3.0292 22.2622
rtibia 31.4474
rfoot -20.5115 -1.68854
rtoes 15.9846
lfemur -14.1192 -6.06647 -21.5108
ltibia 23.5097
lfoot -15.079 0.363646
ltoes -7.29901
81
root 0.368211 17.7757 12.0804 -170.622 -4.34452 177.589
lowerback -0.265467 -1.18319 -4.28535
upperback -1.11476 -1.59697 1.80877
thorax -0.8297 -0.764009 4.2742
lowerneck -13.9736 3.31309 -10.2833
upperneck 40.0864 2.25425 2.60529
head 16.6127 -1.9462 2.8932
rclavicle -3.77691e-015 1.43125e-014
rhumerus -33.6132 -7.74818 -78.2422
rradius 33.7034
rwrist 18.8874
rhand -18.3171 3.25772
rfingers 7.12502
rthumb 7.96427 -26.5722
lclavicle -3.77691e-015 1.43125e-014
lhumerus -33.192 9.93223 81.6997
lradius 30.1307
lwrist -3.96926
lhand -17.4023 24.7951
lfingers 7.12502
lthumb 8.84711 54.5897
rfemur -17.8526 3.03815 22.4147
rtibia 31.5436
rfoot -20.6182 -1.63018
rtoes 16.1093
lfemur -14.1819 -6.0768 -21.3535
ltibia 23.6053
lfoot -15.0306 0.301786
ltoes -7.13921
82
root 0.377574 17.7654 12.0848 -170.656 -4.33511 177.748
lowerback -0.135936 -1.16426 -4.10738
upperback -1.08678 -1.57564 1.85596
thorax -0.878964 -0.754004 4.22519
lowerneck -14.0904 3.31833 -10.3492
upperneck 40.1497 2.28435 2.64662
head 16.6714 -1.94172 2.93138
rclavicle 1.76918e-014 2.8625e-014
rhumerus -33.6815 -7.48176 -78.2878
rradius 33.8866
rwrist 18.7397
rhand -18.343 3.38186
rfingers 7.12502
rthumb 7.9393 -26.449
lclavicle 1.76918e-014 2.8625e-014
lhumerus -33.2994 9.96952 81.682
lradius 30.3051
lwrist -3.98566
lhand -17.4218 24.7323
lfingers 7.12502
lthumb 8.82835 54.5277
rfemur -17.8516 2.99386 22.6232
rtibia 31.4898
rfoot -20.4797 -1.6446
rtoes 15.6576
lfemur -14.308 -5.95608 -21.208
ltibia 23.826
lfoot -14.944 0.486912
ltoes -8.70328
83
root 0.387514 17.7554 12.0883 -170.683 -4.3333 177.817
lowerback -0.112214 -1.1461 -3.99723
upperback -1.01468 -1.55024 1.86613
thorax -0.823092 -0.744516 4.17286
lowerneck -14.1478 3.32115 -10.464
upperneck 40.1599 2.29835 2.76408
head 16.6841 -1.93354 3.00916
rclavicle 1.42131e-014 4.13472e-014
rhumerus -33.6527 -7.23068 -78.3563
rradius 33.9161
rwrist 18.4749
rhand -18.4571 3.57568
rfingers 7.12502
rthumb 7.82913 -26.2594
lclavicle 1.42131e-014 4.13472e-014
lhumerus -33.1543 10.0811 81.6395
lradius 30.2396
lwrist -4.09137
lhand -17.511 24.4728
lfingers 7.12502
lthumb 8.7422 54.2718
rfemur -17.9046 2.9654 22.7334
rtibia 31.572
rfoot -20.3782 -1.60077
rtoes 15.3229
lfemur -14.407 -5.93272 -21.1409
ltibia 23.973
lfoot -14.8651 0.667365
ltoes -10.3061
84
root 0.39808 17.7648 12.0925 -170.704 -4.36419 177.752
lowerback -0.0884416 -1.12669 -4.00711
upperback -0.935309 -1.52256 1.81077
thorax -0.758724 -0.732795 4.12038
lowerneck -14.1579 3.30102 -10.5222
upperneck 40.1661 2.24273 2.88798
head 16.6899 -1.94477 3.06739
rclavicle -1.0635e-014 5.56597e-015
rhumerus -33.5728 -7.24502 -78.4388
rradius 33.9079
rwrist 18.4634
rhand -18.4148 3.52007
rfingers 7.12502
rthumb 7.87 -26.3134
lclavicle -1.0635e-014 5.56597e-015
lhumerus -32.9413 10.0269 81.6165
lradius 30.1513
lwrist -4.0072
lhand -17.5761 24.3529
lfingers 7.12502
lthumb 8.67941 54.1545
rfemur -17.8801 2.91713 22.7064
rtibia 31.5444
rfoot -20.3178 -1.6333
rtoes 15.0403
lfemur -14.5482 -6.52206 -21.0432
ltibia 24.2332
lfoot -14.8748 0.606696
ltoes -7.39001
85
root 0.408881 17.7476 12.1 -170.784 -4.33849 177.802
lowerback 0.0321159 -1.07419 -3.91051
upperback -0.85391 -1.4541 1.77819
thorax -0.75255 -0.700172 4.03348
lowerneck -14.197 3.27278 -10.5141
upperneck 40.1688 2.20301 2.90897
head 16.7048 -1.95248 3.07089
rclavicle 1.74931e-014 -1.59028e-015
rhumerus -33.5028 -7.33135 -78.5016
rradius 33.9331
rwrist 18.515
rhand -18.4086 3.53027
rfingers 7.12502
rthumb 7.87595 -26.303
lclavicle 1.74931e-014 -1.59028e-015
lhumerus -32.8389 9.8426 81.616
lradius 30.1997
lwrist -3.86784
lhand -17.4627 24.5411
lfingers 7.12502
lthumb 8.78883 54.3381
rfemur -17.8796 2.92316 22.8032
rtibia 31.6111
rfoot -20.3092 -1.60635
rtoes 14.8877
lfemur -14.6254 -6.36845 -21.0166
ltibia 24.4698
lfoot -14.835 0.780163
ltoes -8.95761
86
root 0.420657 17.7612 12.1037 -170.894 -4.37327 177.908
lowerback 0.20882 -1.05076 -3.79673
upperback -0.780547 -1.42679 1.7936
thorax -0.781145 -0.687519 3.98789
lowerneck -14.289 3.34258 -10.3311
upperneck 40.2405 2.31332 2.796
head 16.7623 -1.89808 3.00954
rclavicle -8.94531e-016 -1.66979e-014
rhumerus -33.4554 -7.38382 -78.5404
rradius 33.9529
rwrist 18.5394
rhand -18.4938 3.74726
rfingers 7.12502
rthumb 7.79376 -26.0891
lclavicle -8.94531e-016 -1.66979e-014
lhumerus -32.7742 9.75002 81.5986
lradius 30.267
lwrist -3.82277
lhand -17.3875 24.6072
lfingers 7.12502
lthumb 8.86144 54.4012
rfemur -17.7131 2.84772 22.9636
rtibia 31.4984
rfoot -20.2664 -1.52981
rtoes 15.0752
lfemur -14.7127 -6.59338 -20.8253
ltibia 24.8838
lfoot -15.0265 0.80194
ltoes -7.37852
87
root 0.434088 17.7452 12.1117 -170.922 -4.46274 177.965
lowerback 0.288549 -1.04184 -3.75711
upperback -0.703317 -1.41591 1.80338
thorax -0.748165 -0.684113 3.97624
lowerneck -14.5143 3.44026 -9.931
upperneck 40.4058 2.46534 2.5468
head 16.9103 -1.81928 2.85901
rclavicle -9.34288e-015 1.03368e-014
rhumerus -33.3917 -7.47518 -78.5711
rradius 33.9561
rwrist 18.609
rhand -18.6849 3.8638
rfingers 7.12502
rthumb 7.60933 -25.9793
lclavicle -9.34288e-015 1.03368e-014
lhumerus -32.6254 9.77583 81.5797
lradius 30.3021
lwrist -3.90712
lhand -17.5717 24.346
lfingers 7.12502
lthumb 8.68366 54.1474
rfemur -17.7187 2.75889 23.0934
rtibia 31.4598
rfoot -20.2234 -1.54979
rtoes 14.9615
lfemur -15.017 -6.3181 -20.8116
ltibia 25.326
lfoot -15.0878 1.05912
ltoes -10.6093
88
root 0.448224 17.7558 12.1159 -170.95 -4.43784 178.06
lowerback 0.372825 -0.98764 -3.70115
upperback -0.626417 -1.345 1.82338
thorax -0.723984 -0.65068 3.96572
lowerneck -14.7061 3.45779 -9.69323
upperneck 40.5635 2.49975 2.36469
head 17.0546 -1.80658 2.74535
rclavicle -1.36167e-014 3.97569e-016
rhumerus -33.2602 -7.56521 -78.5913
rradius 33.8713
rwrist 18.7329
rhand -18.9193 3.8097
rfingers 7.12502
rthumb 7.38303 -26.0415
lclavicle -1.36167e-014 3.97569e-016
lhumerus -32.4532 9.73925 81.6041
lradius 30.3402
lwrist -3.86276
lhand -17.793 24.1787
lfingers 7.12502
lthumb 8.47006 53.9889
rfemur -17.6837 2.66147 23.2521
rtibia 31.3395
rfoot -20.0626 -1.47496
rtoes 14.8759
lfemur -15.2807 -6.58998 -20.5989
ltibia 25.8421
lfoot -15.2477 1.14824
ltoes -9.73221
89
root 0.461155 17.7565 12.1208 -170.946 -4.33723 178.247
lowerback 0.436693 -0.925511 -3.56847
upperback -0.607065 -1.26393 1.88084
thorax -0.749202 -0.611084 3.95078
lowerneck -14.688 3.47635 -9.65547
upperneck 40.6417 2.49908 2.33015
head 17.0951 -1.81733 2.72176
rclavicle 7.55382e-015 5.1684e-015
rhumerus -33.2113 -7.49741 -78.6166
rradius 33.8568
rwrist 18.6564
rhand -18.786 3.58214
rfingers 7.12502
rthumb 7.51175 -26.2645
lclavicle 7.55382e-015 5.1684e-015
lhumerus -32.585 9.7098 81.6
lradius 30.5819
lwrist -3.8886
lhand -17.8019 24.2795
lfingers 7.12502
lthumb 8.46153 54.09
rfemur -17.7122 2.64477 23.4996
rtibia 31.2834
rfoot -19.9588 -1.42903
rtoes 14.3845
lfemur -15.5665 -6.68883 -20.3377
ltibia 26.3284
lfoot -15.3167 1.39921
ltoes -10.2395
